#!OML:ASF F:\VICON\USERDATA\INSTALL\rory3\rory3.ASF
:FULLY-SPECIFIED
:DEGREES
474
root 3.83964 16.4418 0.313184 13.1379 2.06792 3.6127
lowerback 4.30007 -0.310903 5.14448
upperback 2.30715 -0.237217 -2.74767
thorax -0.059906 -0.0601883 -5.73549
lowerneck -5.0674 7.08128 0.231301
upperneck 54.6248 10.7 3.43253
head 25.0271 4.36109 4.12851
rclavicle 1.69464e-014 4.91992e-015
rhumerus -45.5279 22.3554 -104.274
rradius 93.3613
rwrist -54.7137
rhand 0.401309 -46.6754
rfingers 7.12502
rthumb 25.9747 -74.9204
lclavicle 1.69464e-014 4.91992e-015
lhumerus -25.5379 -23.9213 88.0654
lradius 97.3608
lwrist 79.4259
lhand -20.8815 -21.6941
lfingers 7.12502
lthumb 5.48878 8.21484
rfemur -59.6869 5.08773 14.2794
rtibia 81.2768
rfoot 12.5055 -3.20417
rtoes -22.0206
lfemur -35.4406 -5.42756 -31.851
ltibia 48.3799
lfoot -22.9055 16.4355
ltoes 8.98056
475
root 3.84104 16.4331 0.308704 13.0963 2.12544 3.55319
lowerback 4.52992 -0.42239 5.12549
upperback 2.28342 -0.375512 -2.64149
thorax -0.231463 -0.136243 -5.60622
lowerneck -5.02032 7.22476 0.239505
upperneck 54.7535 11.0268 3.28427
head 25.1804 4.45597 4.1184
rclavicle 3.2054e-015 -1.33186e-014
rhumerus -45.7486 22.826 -104.467
rradius 93.2429
rwrist -54.8104
rhand -0.0458618 -46.7043
rfingers 7.12502
rthumb 25.5464 -75.0114
lclavicle 3.2054e-015 -1.33186e-014
lhumerus -25.8565 -23.8277 88.2584
lradius 97.4216
lwrist 79.5644
lhand -20.6046 -21.8269
lfingers 7.12502
lthumb 5.75611 8.07492
rfemur -59.7928 5.07059 14.3751
rtibia 81.4446
rfoot 12.6283 -3.30593
rtoes -21.7912
lfemur -35.484 -5.22624 -31.8043
ltibia 48.4496
lfoot -22.8989 16.1989
ltoes 8.652
476
root 3.84288 16.4254 0.300188 13.0533 2.11375 3.69792
lowerback 4.75477 -0.407727 4.95627
upperback 2.21991 -0.352999 -2.67738
thorax -0.419557 -0.133378 -5.54781
lowerneck -4.72715 7.24858 0.542995
upperneck 54.7502 11.095 3.0465
head 25.135 4.53344 3.91384
rclavicle 5.46658e-015 -3.01159e-014
rhumerus -45.9508 22.8405 -104.618
rradius 93.1672
rwrist -54.8714
rhand -0.322959 -45.8986
rfingers 7.12502
rthumb 25.281 -74.2435
lclavicle 5.46658e-015 -3.01159e-014
lhumerus -26.2653 -24.1753 88.4818
lradius 97.4912
lwrist 79.7426
lhand -20.247 -22.0353
lfingers 7.12502
lthumb 6.10138 7.85689
rfemur -59.9599 5.02199 14.2199
rtibia 81.6288
rfoot 12.8911 -3.17875
rtoes -21.7646
lfemur -35.5555 -5.05773 -31.9755
ltibia 48.5557
lfoot -22.9068 15.9435
ltoes 8.70667
477
root 3.84322 16.417 0.28768 13.0606 2.11434 3.76154
lowerback 4.90701 -0.227706 4.96334
upperback 2.10222 -0.107184 -2.81956
thorax -0.593526 -0.0179313 -5.71465
lowerneck -4.35432 7.08026 0.921562
upperneck 54.6987 10.6871 3.084
head 24.967 4.49128 3.75123
rclavicle 2.73329e-016 1.12313e-014
rhumerus -46.1705 22.1623 -104.722
rradius 93.1812
rwrist -54.9022
rhand -0.362007 -44.6163
rfingers 7.12502
rthumb 25.2436 -72.9664
lclavicle 2.73329e-016 1.12313e-014
lhumerus -26.7388 -25.1074 88.6977
lradius 97.522
lwrist 80.116
lhand -20.0344 -21.8741
lfingers 7.12502
lthumb 6.30657 8.01199
rfemur -60.2313 5.01694 14.1298
rtibia 81.7885
rfoot 13.3391 -3.08056
rtoes -21.8187
lfemur -35.7119 -4.97423 -32.0269
ltibia 48.6885
lfoot -22.9585 15.6515
ltoes 8.98419
478
root 3.84712 16.4095 0.278752 13.1687 2.14669 3.62893
lowerback 4.77639 -0.136719 5.17594
upperback 2.0945 0.0175625 -2.85796
thorax -0.510586 0.0482681 -5.8831
lowerneck -4.24129 7.00167 0.896268
upperneck 54.7084 10.4334 3.34446
head 24.8802 4.4262 3.84692
rclavicle 3.42904e-015 -1.00386e-014
rhumerus -46.2955 21.7893 -104.772
rradius 93.3043
rwrist -54.8701
rhand 0.309408 -47.7456
rfingers 7.12502
rthumb 25.8867 -76.0034
lclavicle 3.42904e-015 -1.00386e-014
lhumerus -27.0614 -25.5863 88.8414
lradius 97.5927
lwrist 80.5388
lhand -20.078 -21.4745
lfingers 7.12502
lthumb 6.26452 8.41289
rfemur -60.5806 5.04469 14.2139
rtibia 81.9325
rfoot 13.7494 -3.08966
rtoes -21.7527
lfemur -35.9595 -4.89991 -31.8903
ltibia 48.8388
lfoot -22.9508 15.4669
ltoes 8.80177
